<?xml version="1.0" encoding="iso-8859-1"?>
<!-- Generator: Adobe Illustrator 19.0.0, SVG Export Plug-In . SVG Version: 6.00 Build 0)  -->
<svg version="1.1" id="Capa_1" xmlns="http://www.w3.org/2000/svg" xmlns:xlink="http://www.w3.org/1999/xlink" x="0px" y="0px"
	 viewBox="0 0 423.253 423.253" style="enable-background:new 0 0 423.253 423.253;" xml:space="preserve">
<rect x="6.827" y="174.08" style="fill:#00E7FF;" width="40.96" height="81.92"/>
<path style="fill:#602F75;" d="M47.787,262.827H6.827C3.053,262.827,0,259.773,0,256v-81.92c0-3.773,3.053-6.827,6.827-6.827h40.96
	c3.773,0,6.827,3.053,6.827,6.827V256C54.613,259.773,51.56,262.827,47.787,262.827z M13.653,249.173H40.96v-68.267H13.653V249.173z
	"/>
<rect x="177.493" y="324.267" style="fill:#00E7FF;" width="68.267" height="68.267"/>
<path style="fill:#602F75;" d="M245.76,399.36h-68.267c-3.773,0-6.827-3.053-6.827-6.827v-68.267c0-3.773,3.053-6.827,6.827-6.827
	h68.267c3.773,0,6.827,3.053,6.827,6.827v68.267C252.587,396.307,249.533,399.36,245.76,399.36z M184.32,385.707h54.613v-54.613
	H184.32V385.707z"/>
<rect x="375.467" y="174.08" style="fill:#00E7FF;" width="40.96" height="81.92"/>
<path style="fill:#602F75;" d="M416.427,262.827h-40.96c-3.773,0-6.827-3.053-6.827-6.827v-81.92c0-3.773,3.053-6.827,6.827-6.827
	h40.96c3.773,0,6.827,3.053,6.827,6.827V256C423.253,259.773,420.2,262.827,416.427,262.827z M382.293,249.173H409.6v-68.267
	h-27.307V249.173z"/>
<path style="fill:#602F75;" d="M109.227,133.12c-3.773,0-6.827-3.053-6.827-6.827V51.2c0-3.773,3.053-6.827,6.827-6.827
	s6.827,3.053,6.827,6.827v75.093C116.053,130.067,113,133.12,109.227,133.12z"/>
<path style="fill:#FFFFFF;" d="M150.19,126.293h211.664c15.058,0,27.266,12.198,27.266,27.302v150.197
	c0,15.078-12.22,27.302-27.266,27.302H61.399c-15.058,0-27.266-12.198-27.266-27.302V153.595c0-15.078,12.22-27.302,27.266-27.302
	h47.828"/>
<path style="fill:#602F75;" d="M361.853,337.92H61.401c-18.801,0-34.094-15.307-34.094-34.127v-150.2
	c0-18.819,15.293-34.127,34.094-34.127h47.826c3.773,0,6.827,3.053,6.827,6.827s-3.053,6.827-6.827,6.827H61.401
	c-11.274,0-20.441,9.187-20.441,20.473v150.2c0,11.286,9.167,20.473,20.441,20.473h300.454c11.273,0,20.441-9.187,20.441-20.473
	v-150.2c0-11.286-9.167-20.473-20.441-20.473H150.187c-3.773,0-6.827-3.053-6.827-6.827s3.053-6.827,6.827-6.827h211.666
	c18.801,0,34.094,15.307,34.094,34.127v150.2C395.947,322.613,380.653,337.92,361.853,337.92z"/>
<path style="fill:#EA3457;" d="M170.667,249.173c0,22.622,18.338,40.96,40.96,40.96s40.96-18.338,40.96-40.96H170.667z"/>
<path style="fill:#602F75;" d="M211.627,296.96c-26.348,0-47.787-21.439-47.787-47.787c0-3.773,3.053-6.827,6.827-6.827h81.92
	c3.773,0,6.827,3.053,6.827,6.827C259.413,275.521,237.974,296.96,211.627,296.96z M178.179,256
	c3.173,15.56,16.961,27.307,33.447,27.307S241.9,271.56,245.074,256H178.179z"/>
<g>
	<circle style="fill:#EA3457;" cx="109.227" cy="44.373" r="13.653"/>
	<path style="fill:#EA3457;" d="M109.227,64.853c-11.293,0-20.48-9.187-20.48-20.48s9.187-20.48,20.48-20.48
		s20.48,9.187,20.48,20.48S120.52,64.853,109.227,64.853z M109.227,37.547c-3.767,0-6.827,3.06-6.827,6.827
		c0,3.767,3.06,6.827,6.827,6.827s6.827-3.06,6.827-6.827C116.053,40.607,112.993,37.547,109.227,37.547z"/>
</g>
<path style="fill:#602F75;" d="M314.027,133.12c-3.773,0-6.827-3.053-6.827-6.827V51.2c0-3.773,3.053-6.827,6.827-6.827
	s6.827,3.053,6.827,6.827v75.093C320.853,130.067,317.8,133.12,314.027,133.12z"/>
<g>
	<circle style="fill:#EA3457;" cx="314.027" cy="44.373" r="13.653"/>
	<path style="fill:#EA3457;" d="M314.027,64.853c-11.293,0-20.48-9.187-20.48-20.48s9.187-20.48,20.48-20.48
		s20.48,9.187,20.48,20.48S325.32,64.853,314.027,64.853z M314.027,37.547c-3.767,0-6.827,3.06-6.827,6.827
		c0,3.767,3.06,6.827,6.827,6.827s6.827-3.06,6.827-6.827C320.853,40.607,317.793,37.547,314.027,37.547z"/>
</g>
<circle style="fill:#FFE600;" cx="116.053" cy="208.213" r="27.307"/>
<path style="fill:#602F75;" d="M116.053,242.347c-18.819,0-34.133-15.314-34.133-34.133s15.314-34.133,34.133-34.133
	s34.133,15.314,34.133,34.133S134.873,242.347,116.053,242.347z M116.053,187.733c-11.293,0-20.48,9.187-20.48,20.48
	c0,11.293,9.187,20.48,20.48,20.48s20.48-9.187,20.48-20.48C136.533,196.92,127.346,187.733,116.053,187.733z"/>
<circle style="fill:#FFE600;" cx="307.2" cy="208.213" r="27.307"/>
<path style="fill:#602F75;" d="M307.2,242.347c-18.819,0-34.133-15.314-34.133-34.133s15.314-34.133,34.133-34.133
	s34.133,15.314,34.133,34.133S326.019,242.347,307.2,242.347z M307.2,187.733c-11.293,0-20.48,9.187-20.48,20.48
	c0,11.293,9.187,20.48,20.48,20.48s20.48-9.187,20.48-20.48C327.68,196.92,318.493,187.733,307.2,187.733z"/>
<g>
</g>
<g>
</g>
<g>
</g>
<g>
</g>
<g>
</g>
<g>
</g>
<g>
</g>
<g>
</g>
<g>
</g>
<g>
</g>
<g>
</g>
<g>
</g>
<g>
</g>
<g>
</g>
<g>
</g>
</svg>
