<svg width="105" height="26" viewBox="0 0 105 26" fill="none" xmlns="http://www.w3.org/2000/svg">
<path d="M9.848 25.16C8.16266 25.16 6.648 24.776 5.304 24.008C3.96 23.2187 2.89333 22.152 2.104 20.808C1.336 19.464 0.951996 17.9387 0.951996 16.232C0.951996 14.5467 1.32533 13.032 2.072 11.688C2.84 10.344 3.87466 9.288 5.176 8.52C6.47733 7.73067 7.94933 7.336 9.592 7.336C11.0213 7.336 12.312 7.64533 13.464 8.264C14.616 8.86133 15.544 9.66133 16.248 10.664V1.256C16.248 0.871998 16.3653 0.573332 16.6 0.359999C16.8347 0.125333 17.1333 0.00799942 17.496 0.00799942C17.8587 0.00799942 18.1573 0.125333 18.392 0.359999C18.6267 0.573332 18.744 0.871998 18.744 1.256V16.36C18.7013 18.024 18.2853 19.528 17.496 20.872C16.728 22.1947 15.672 23.24 14.328 24.008C13.0053 24.776 11.512 25.16 9.848 25.16ZM9.848 22.92C11.0853 22.92 12.184 22.632 13.144 22.056C14.1253 21.4587 14.8933 20.6587 15.448 19.656C16.024 18.6533 16.312 17.512 16.312 16.232C16.312 14.9733 16.024 13.8427 15.448 12.84C14.8933 11.816 14.1253 11.016 13.144 10.44C12.184 9.864 11.0853 9.576 9.848 9.576C8.632 9.576 7.53333 9.864 6.552 10.44C5.57066 11.016 4.792 11.816 4.216 12.84C3.64 13.8427 3.352 14.9733 3.352 16.232C3.352 17.512 3.64 18.6533 4.216 19.656C4.792 20.6587 5.57066 21.4587 6.552 22.056C7.53333 22.632 8.632 22.92 9.848 22.92Z" fill="black"/>
<path d="M32.473 25.16C30.7877 25.16 29.273 24.776 27.929 24.008C26.585 23.2187 25.5183 22.152 24.729 20.808C23.961 19.464 23.577 17.9387 23.577 16.232C23.577 14.5467 23.9503 13.032 24.697 11.688C25.465 10.344 26.4997 9.288 27.801 8.52C29.1023 7.73067 30.5743 7.336 32.217 7.336C33.6463 7.336 34.937 7.64533 36.089 8.264C37.241 8.86133 38.169 9.66133 38.873 10.664V1.256C38.873 0.871998 38.9903 0.573332 39.225 0.359999C39.4597 0.125333 39.7583 0.00799942 40.121 0.00799942C40.4837 0.00799942 40.7823 0.125333 41.017 0.359999C41.2517 0.573332 41.369 0.871998 41.369 1.256V16.36C41.3263 18.024 40.9103 19.528 40.121 20.872C39.353 22.1947 38.297 23.24 36.953 24.008C35.6303 24.776 34.137 25.16 32.473 25.16ZM32.473 22.92C33.7103 22.92 34.809 22.632 35.769 22.056C36.7503 21.4587 37.5183 20.6587 38.073 19.656C38.649 18.6533 38.937 17.512 38.937 16.232C38.937 14.9733 38.649 13.8427 38.073 12.84C37.5183 11.816 36.7503 11.016 35.769 10.44C34.809 9.864 33.7103 9.576 32.473 9.576C31.257 9.576 30.1583 9.864 29.177 10.44C28.1957 11.016 27.417 11.816 26.841 12.84C26.265 13.8427 25.977 14.9733 25.977 16.232C25.977 17.512 26.265 18.6533 26.841 19.656C27.417 20.6587 28.1957 21.4587 29.177 22.056C30.1583 22.632 31.257 22.92 32.473 22.92Z" fill="black"/>
<path d="M53.978 25C52.8473 25 51.834 24.7333 50.938 24.2C50.0633 23.6667 49.37 22.9413 48.858 22.024C48.346 21.0853 48.09 20.0187 48.09 18.824V3.176C48.09 2.81333 48.1967 2.51466 48.41 2.28C48.6447 2.04533 48.9433 1.928 49.306 1.928C49.6687 1.928 49.9673 2.04533 50.202 2.28C50.4367 2.51466 50.554 2.81333 50.554 3.176V18.824C50.554 19.912 50.874 20.808 51.514 21.512C52.154 22.1947 52.9753 22.536 53.978 22.536H54.842C55.1833 22.536 55.4607 22.6533 55.674 22.888C55.8873 23.1227 55.994 23.4213 55.994 23.784C55.994 24.1467 55.866 24.4453 55.61 24.68C55.354 24.8933 55.034 25 54.65 25H53.978ZM46.01 10.28C45.69 10.28 45.4233 10.184 45.21 9.992C44.9967 9.77867 44.89 9.52267 44.89 9.224C44.89 8.904 44.9967 8.648 45.21 8.456C45.4233 8.24267 45.69 8.136 46.01 8.136H54.17C54.49 8.136 54.7567 8.24267 54.97 8.456C55.1833 8.648 55.29 8.904 55.29 9.224C55.29 9.52267 55.1833 9.77867 54.97 9.992C54.7567 10.184 54.49 10.28 54.17 10.28H46.01Z" fill="black"/>
<path d="M67.717 25.16C66.0743 25.16 64.6023 24.776 63.301 24.008C61.9997 23.2187 60.965 22.152 60.197 20.808C59.4503 19.464 59.077 17.9493 59.077 16.264C59.077 14.5573 59.461 13.032 60.229 11.688C61.0183 10.344 62.085 9.288 63.429 8.52C64.773 7.73067 66.2877 7.336 67.973 7.336C69.6583 7.336 71.1623 7.73067 72.485 8.52C73.829 9.288 74.885 10.344 75.653 11.688C76.4423 13.032 76.8477 14.5573 76.869 16.264L75.877 17.032C75.877 18.568 75.5143 19.9547 74.789 21.192C74.085 22.408 73.1143 23.3787 71.877 24.104C70.661 24.808 69.2743 25.16 67.717 25.16ZM67.973 22.92C69.2103 22.92 70.309 22.632 71.269 22.056C72.2503 21.48 73.0183 20.6907 73.573 19.688C74.149 18.664 74.437 17.5227 74.437 16.264C74.437 14.984 74.149 13.8427 73.573 12.84C73.0183 11.8373 72.2503 11.048 71.269 10.472C70.309 9.87467 69.2103 9.576 67.973 9.576C66.757 9.576 65.6583 9.87467 64.677 10.472C63.6957 11.048 62.917 11.8373 62.341 12.84C61.765 13.8427 61.477 14.984 61.477 16.264C61.477 17.5227 61.765 18.664 62.341 19.688C62.917 20.6907 63.6957 21.48 64.677 22.056C65.6583 22.632 66.757 22.92 67.973 22.92ZM75.621 25C75.2583 25 74.9597 24.8933 74.725 24.68C74.4903 24.4453 74.373 24.1467 74.373 23.784V18.312L74.981 15.784L76.869 16.264V23.784C76.869 24.1467 76.7517 24.4453 76.517 24.68C76.2823 24.8933 75.9837 25 75.621 25Z" fill="black"/>
<path d="M85.4372 25C84.5839 25 83.8159 24.7653 83.1332 24.296C82.4719 23.8267 81.9492 23.176 81.5652 22.344C81.2026 21.512 81.0212 20.552 81.0212 19.464V1.224C81.0212 0.861332 81.1279 0.573332 81.3412 0.359999C81.5759 0.125333 81.8746 0.00799942 82.2372 0.00799942C82.5999 0.00799942 82.8879 0.125333 83.1012 0.359999C83.3359 0.573332 83.4532 0.861332 83.4532 1.224V19.464C83.4532 20.3813 83.6346 21.128 83.9972 21.704C84.3812 22.28 84.8612 22.568 85.4372 22.568H86.2372C86.5572 22.568 86.8132 22.6853 87.0052 22.92C87.1972 23.1333 87.2932 23.4213 87.2932 23.784C87.2932 24.1467 87.1546 24.4453 86.8772 24.68C86.6212 24.8933 86.2799 25 85.8532 25H85.4372Z" fill="black"/>
<path d="M92.7085 19.144L91.2045 17.512L102.148 7.624C102.404 7.38933 102.671 7.28267 102.948 7.304C103.226 7.304 103.482 7.432 103.716 7.688C103.951 7.944 104.058 8.22133 104.036 8.52C104.036 8.79733 103.908 9.04267 103.652 9.256L92.7085 19.144ZM91.9085 25C91.5458 25 91.2472 24.8933 91.0125 24.68C90.7992 24.4453 90.6925 24.1467 90.6925 23.784V1.224C90.6925 0.861332 90.7992 0.573332 91.0125 0.359999C91.2472 0.125333 91.5458 0.00799942 91.9085 0.00799942C92.2712 0.00799942 92.5592 0.125333 92.7725 0.359999C93.0072 0.573332 93.1245 0.861332 93.1245 1.224V23.784C93.1245 24.1467 93.0072 24.4453 92.7725 24.68C92.5592 24.8933 92.2712 25 91.9085 25ZM103.748 24.84C103.471 25.0747 103.183 25.1707 102.884 25.128C102.586 25.1067 102.33 24.9573 102.116 24.68L94.9805 15.912L96.7085 14.376L103.908 23.24C104.122 23.496 104.218 23.7733 104.196 24.072C104.175 24.3493 104.026 24.6053 103.748 24.84Z" fill="black"/>
</svg>
